<svg width="100" height="33" viewBox="0 0 100 33" fill="none" xmlns="http://www.w3.org/2000/svg">
<path d="M25.2173 11.8775H13.5017V15.2861H21.8105C21.4002 20.0663 17.3442 22.1046 13.5157 22.1046C8.61794 22.1046 4.34364 18.3259 4.34364 13.0295C4.34364 7.87013 8.4181 3.89646 13.5267 3.89646C17.4682 3.89646 19.7903 6.36024 19.7903 6.36024L22.2247 3.88884C22.2247 3.88884 19.1003 0.478271 13.4023 0.478271C6.14637 0.478271 0.533203 6.48291 0.533203 12.9686C0.533203 19.3242 5.81314 25.521 13.5873 25.521C20.4243 25.521 25.4293 20.9284 25.4293 14.1376C25.4293 12.7046 25.2169 11.8767 25.2169 11.8767L25.2173 11.8775Z" fill="#826CA5"/>
<path d="M34.5036 9.45691C29.6613 9.45691 26.1912 13.1311 26.1912 17.416C26.1912 21.7643 29.5572 25.5065 34.5603 25.5065C39.0894 25.5065 42.8003 22.1466 42.8003 17.5092C42.8003 12.1943 38.4839 9.45691 34.5036 9.45691ZM34.5516 12.6091C36.9328 12.6091 39.1891 14.4774 39.1891 17.4882C39.1891 20.4352 36.9423 22.3566 34.5406 22.3566C31.9018 22.3566 29.8201 20.3055 29.8201 17.4649C29.8201 14.685 31.8762 12.6091 34.5516 12.6091Z" fill="#826CA5"/>
<path d="M52.1951 9.45691C47.3532 9.45691 43.8831 13.1311 43.8831 17.416C43.8831 21.7643 47.2488 25.5065 52.2522 25.5065C56.7814 25.5065 60.4918 22.1466 60.4918 17.5092C60.4918 12.1943 56.1758 9.45691 52.1951 9.45691ZM52.2436 12.6091C54.6244 12.6091 56.8811 14.4774 56.8811 17.4882C56.8811 20.4352 54.6342 22.3566 52.2325 22.3566C49.5938 22.3566 47.512 20.3055 47.512 17.4649C47.512 14.685 49.5677 12.6091 52.2436 12.6091Z" fill="#826CA5"/>
<path d="M69.5485 9.46613C65.0997 9.46613 61.6028 13.2541 61.6028 17.5057C61.6028 22.3483 65.6568 25.5597 69.472 25.5597C71.8307 25.5597 73.0852 24.6496 74.0112 23.6045V25.1913C74.0112 27.9669 72.2776 29.6291 69.6605 29.6291C67.1322 29.6291 65.8643 27.8021 65.4234 26.765L62.2424 28.0577C63.3711 30.3771 65.6427 32.7962 69.6865 32.7962C74.1102 32.7962 77.4812 30.0876 77.4812 24.4074V9.94993H74.0112V11.3128C72.9441 10.1952 71.4848 9.46644 69.5485 9.46644V9.46613ZM69.8707 12.62C72.0519 12.62 74.2916 14.4307 74.2916 17.5225C74.2916 20.6654 72.0567 22.3974 69.8222 22.3974C67.4505 22.3974 65.2436 20.525 65.2436 17.5524C65.2436 14.4637 67.5357 12.62 69.8707 12.62Z" fill="#826CA5"/>
<path d="M92.392 9.44614C88.1911 9.44614 84.6638 12.6837 84.6638 17.4603C84.6638 22.5153 88.5954 25.5132 92.7958 25.5132C96.301 25.5132 98.4525 23.6555 99.7363 21.9911L96.8722 20.1454C96.1293 21.2626 94.8865 22.3543 92.8131 22.3543C90.484 22.3543 89.4129 21.1188 88.7494 19.9224L99.8587 15.4575L99.2819 14.149C98.2089 11.5866 95.7053 9.44693 92.3923 9.44693L92.392 9.44614ZM92.5368 12.5327C94.0503 12.5327 95.14 13.3119 95.6026 14.2469L88.1836 17.2504C87.8638 14.9248 90.1381 12.5327 92.5368 12.5327Z" fill="#826CA5"/>
<path d="M79.491 25.0326H83.4095V1.3154H79.491V25.0326Z" fill="#826CA5"/>
</svg>
