<svg width="126" height="36" viewBox="0 0 126 36" fill="none" xmlns="http://www.w3.org/2000/svg">
<path d="M125.769 31.8127C125.769 33.7644 124.179 35.3463 122.217 35.3463H94.0861C92.1236 35.3463 90.5337 33.7644 90.5337 31.8127V3.53363C90.5337 1.5821 92.1236 -3.05176e-05 94.0861 -3.05176e-05H122.217C124.179 -3.05176e-05 125.769 1.5821 125.769 3.53363V31.8127Z" fill="#826CA5"/>
<path d="M0.994141 7.13947H5.7897V24.0012H14.245V27.9539H0.994141V7.13947Z" fill="#826CA5"/>
<path d="M20.7794 8.65083C20.7794 9.94767 19.7728 10.9979 18.1165 10.9979C16.5576 10.9979 15.5508 9.94767 15.5508 8.65083C15.5508 7.32277 16.5903 6.30356 18.1816 6.30356C19.7728 6.30356 20.7471 7.32277 20.7794 8.65083ZM15.6808 27.9539V12.851H20.6174V27.9539H15.6808Z" fill="#826CA5"/>
<path d="M23.2022 17.681C23.2022 15.7995 23.1393 14.2264 23.0762 12.8686H27.2329L27.4537 14.9665H27.5483C28.1779 13.9791 29.721 12.5293 32.303 12.5293C35.4524 12.5293 37.8144 14.5964 37.8144 19.0385V27.954H33.0274V19.5938C33.0274 17.6504 32.3349 16.324 30.6029 16.324C29.28 16.324 28.4929 17.2186 28.1463 18.0821C28.0205 18.3907 27.9892 18.8225 27.9892 19.2546V27.954H23.2022V17.681Z" fill="#826CA5"/>
<path d="M45.1722 19.2131H45.2351C45.5814 18.5644 45.9589 17.9469 46.3364 17.391L49.4508 12.8504H55.2084L49.7026 18.9659L55.9948 27.954H50.1117L46.3673 21.7455L45.1722 23.2281V27.954H40.3896V6.02472H45.1722V19.2131Z" fill="#826CA5"/>
<path d="M59.4831 21.9083C59.6092 23.8518 61.593 24.7775 63.8293 24.7775C65.4671 24.7775 66.7897 24.5614 68.0815 24.1295L68.711 27.3073C67.1361 27.9552 65.2152 28.2637 63.1366 28.2637C57.9083 28.2637 54.9163 25.3021 54.9163 20.5816C54.9163 16.7561 57.3417 12.5293 62.6952 12.5293C67.6716 12.5293 69.5613 16.3243 69.5613 20.0572C69.5613 20.8592 69.4665 21.5687 69.4037 21.9083H59.4831ZM65.1205 18.6995C65.1205 17.5581 64.6167 15.6452 62.4121 15.6452C60.3964 15.6452 59.5774 17.466 59.4515 18.6995H65.1205Z" fill="#826CA5"/>
<path d="M86.0985 6.02472V23.4454C86.0985 25.1441 86.1614 26.9358 86.2243 27.9549H81.9778L81.7893 25.7619H81.6953C80.7517 27.4297 78.8643 28.2951 76.883 28.2951C73.2347 28.2951 70.3093 25.237 70.3093 20.5418C70.2782 15.4452 73.5179 12.4804 77.1973 12.4804C79.1159 12.4804 80.5628 13.1597 81.2546 14.1789H81.3175V6.02472H86.0985ZM81.3175 19.2447C81.3175 18.9973 81.3175 18.6578 81.2546 18.3796C80.9718 17.1445 79.9341 16.0941 78.4558 16.0941C76.2536 16.0941 75.1528 18.0091 75.1528 20.3876C75.1528 22.9508 76.4429 24.5571 78.4242 24.5571C79.808 24.5571 80.9402 23.6308 81.2233 22.3028C81.2864 21.9628 81.3175 21.5924 81.3175 21.2215V19.2447Z" fill="#826CA5"/>
<path d="M102.159 8.65071C102.159 9.94755 101.152 10.9978 99.4957 10.9978C97.937 10.9978 96.9302 9.94755 96.9302 8.65071C96.9302 7.32265 97.9693 6.30344 99.5604 6.30344C101.152 6.30344 102.126 7.32265 102.159 8.65071ZM97.0603 27.9538V12.8509H101.996V27.9538H97.0603Z" fill="white"/>
<path d="M104.582 17.6809C104.582 15.7993 104.519 14.2262 104.456 12.8685H108.613L108.833 14.9663H108.928C109.557 13.979 111.101 12.5292 113.683 12.5292C116.832 12.5292 119.194 14.5963 119.194 19.0384V27.9538H114.407V19.5936C114.407 17.6503 113.714 16.3239 111.982 16.3239C110.659 16.3239 109.873 17.2185 109.526 18.082C109.4 18.3906 109.368 18.8224 109.368 19.2545V27.9538H104.582V17.6809Z" fill="white"/>
</svg>
