<svg width="143" height="22" viewBox="0 0 143 22" fill="none" xmlns="http://www.w3.org/2000/svg">
<path fill-rule="evenodd" clip-rule="evenodd" d="M78.1931 10.0488C78.1931 10.0488 76.8363 9.18696 75.9957 8.8535C75.9957 8.8535 73.3969 7.61702 72.8812 7.02874C72.8812 7.02874 71.8691 6.04873 72.4613 4.91153C72.4613 4.91153 72.7097 4.16679 73.7801 4.16679C73.7801 4.16679 75.1736 4.24543 75.1736 5.42111V7.07966H80.1677L80.1582 4.63711C80.1582 4.63711 80.5422 0.6361 74.2757 0.460864C74.2757 0.460864 69.3478 0.128256 67.9342 2.85337C67.9342 2.85337 67.3794 3.46047 67.3794 5.57755V7.10736C67.3794 7.10736 67.3229 8.87323 68.2015 10.0095C68.2015 10.0095 68.698 10.7543 69.9209 11.5777C69.9209 11.5777 72.4039 12.951 73.8932 13.736C73.8932 13.736 75.3984 14.6176 75.1997 16.0194C75.1997 16.0194 75.0778 17.4598 73.6251 17.4008C73.6251 17.4008 72.2967 17.3391 72.2967 15.9274V14.2698H66.9754V16.6785C66.9754 16.6785 66.8255 21.2838 73.6651 21.2838C73.6651 21.2838 80.1974 21.4205 80.503 16.5568V14.597C80.503 14.597 80.7331 11.617 78.1931 10.0488Z" fill="#826CA5"/>
<path fill-rule="evenodd" clip-rule="evenodd" d="M52.2385 1.02783L50.5558 11.7914H50.1624L48.5547 1.12424H40.1599L39.7397 20.6154H44.7101L44.7696 5.9294H45.1602L47.795 20.6123H53.0239L55.6263 5.93496H55.9723L56.0923 20.6154H61.0885L60.5512 1.02783H52.2385Z" fill="#826CA5"/>
<path fill-rule="evenodd" clip-rule="evenodd" d="M22.4113 1.10791L19.1196 20.5935H24.4454L26.3951 5.485H26.8333L28.7824 20.5935H34.1076L30.8167 1.10791H22.4113Z" fill="#826CA5"/>
<path fill-rule="evenodd" clip-rule="evenodd" d="M135.858 9.78148V12.6551H137.22V15.7388C137.22 17.2453 135.966 17.273 135.966 17.273C134.441 17.273 134.498 15.8407 134.498 15.8407V5.17426C134.498 4.07542 135.851 4.01649 135.851 4.01649C137.15 4.01649 137.159 5.32715 137.159 5.32715V6.94905H142.162C142.325 3.78399 141.711 3.01774 141.711 3.01774C140.47 0.154821 135.776 0.311366 135.776 0.311366C128.562 0.311366 129.362 5.99771 129.362 5.99771V16.311C129.517 21.6442 136.624 21.1033 136.745 21.0961C139.908 20.7367 140.863 19.7049 140.863 19.7049C141.742 19.0344 141.969 18.1063 141.969 18.1063C142.218 17.5654 142.282 15.8407 142.282 15.8407V9.78148H135.858Z" fill="#826CA5"/>
<path fill-rule="evenodd" clip-rule="evenodd" d="M118.926 12.9513H118.707L113.612 1.0323H107.519V20.6186H112.478L112.181 8.70089H112.402L117.68 20.6186H123.591V1.03107H118.568L118.926 12.9513Z" fill="#826CA5"/>
<path fill-rule="evenodd" clip-rule="evenodd" d="M95.0871 15.7335C95.0871 15.7335 95.1594 17.3407 93.7083 17.3407C93.7083 17.3407 92.1812 17.4247 92.1812 15.7738L92.1665 1.04376H86.7386V15.6566C86.7386 15.6566 86.1818 21.1872 93.784 21.1872C93.784 21.1872 100.39 21.2677 100.39 15.9097V1.0447H95.0871V15.7335Z" fill="#826CA5"/>
<path fill-rule="evenodd" clip-rule="evenodd" d="M11.7437 10.0487C11.7437 10.0487 10.3877 9.18689 9.54713 8.85343C9.54713 8.85343 6.94906 7.61876 6.43438 7.02867C6.43438 7.02867 5.4214 6.04788 6.01465 4.91237C6.01465 4.91237 6.26185 4.16758 7.33143 4.16758C7.33143 4.16758 8.72584 4.24542 8.72584 5.42104V7.07959H13.7217L13.7113 4.63614C13.7113 4.63614 14.0936 0.636005 7.82878 0.460795C7.82878 0.460795 7.35666 0.429471 6.66435 0.465309C6.66435 0.465309 2.86948 0.674487 1.51248 2.81129C1.50551 2.82649 1.49427 2.83899 1.48647 2.8533C1.48647 2.8533 0.932398 3.45947 0.932398 5.57748V7.10723C0.932398 7.10723 0.875009 8.8722 1.75468 10.0095C1.75468 10.0095 2.25027 10.7542 3.47402 11.5776C3.47402 11.5776 5.95534 12.95 7.44553 13.7351C7.44553 13.7351 8.95128 14.6166 8.75289 16.0193C8.75289 16.0193 8.63 17.4598 7.17815 17.4007C7.17815 17.4007 5.84997 17.3391 5.84997 15.9273V14.2688H0.527604V16.6784C0.527604 16.6784 0.378538 21.2837 7.21649 21.2837C7.21649 21.2837 13.7486 21.4204 14.0552 16.5568V14.5978C14.0552 14.5978 14.2843 11.6169 11.7437 10.0487Z" fill="#826CA5"/>
</svg>
