<svg width="118" height="36" viewBox="0 0 118 36" fill="none" xmlns="http://www.w3.org/2000/svg">
<path d="M18.0324 0.378204C8.35945 0.378204 0.517578 8.13349 0.517578 17.7C0.517578 27.2675 8.35945 35.0225 18.0324 35.0225C27.7058 35.0225 35.5473 27.2675 35.5473 17.7C35.5473 8.13418 27.7063 0.379076 18.0322 0.379076L18.0324 0.378204ZM26.0646 25.3612C25.7501 25.8715 25.0779 26.0315 24.5636 25.7205C20.4506 23.2343 15.2737 22.6728 9.177 24.0502C8.58951 24.1835 8.00389 23.8192 7.87005 23.2384C7.73555 22.6574 8.10218 22.0782 8.69115 21.9457C15.363 20.4373 21.086 21.0866 25.7026 23.8766C26.2171 24.1888 26.3802 24.8527 26.0644 25.3616L26.0646 25.3612ZM28.2084 20.6454C27.8123 21.281 26.9719 21.4804 26.33 21.0902C21.6231 18.2286 14.4457 17.3996 8.87709 19.0714C8.1549 19.2871 7.39213 18.8846 7.17294 18.1717C6.95543 17.4574 7.36265 16.7045 8.08358 16.4873C14.4445 14.5786 22.352 15.5031 27.7585 18.789C28.4006 19.1797 28.6035 20.0113 28.2082 20.6456L28.2084 20.6454H28.2084ZM28.3925 15.7339C22.7467 12.4181 13.434 12.113 8.04445 13.7308C7.179 13.9904 6.26376 13.5073 6.00148 12.6513C5.7392 11.795 6.22736 10.8904 7.09345 10.6302C13.2803 8.77261 23.5653 9.13167 30.0644 12.9473C30.8429 13.4041 31.0982 14.3986 30.6368 15.1673C30.1767 15.9372 29.1686 16.1911 28.3927 15.7339H28.3925ZM48.1697 16.3694C45.1456 15.6561 44.6072 15.1557 44.6072 14.1038C44.6072 13.1101 45.5532 12.4412 46.9599 12.4412C48.3236 12.4412 49.6758 12.9492 51.0934 13.9947C51.1363 14.0262 51.19 14.0389 51.2429 14.0305C51.2959 14.0227 51.3427 13.9939 51.3737 13.9508L52.8503 11.8921C52.9109 11.8073 52.8944 11.6904 52.8126 11.6258C51.1254 10.2869 49.2255 9.63591 47.0047 9.63591C43.7395 9.63591 41.4587 11.5738 41.4587 14.3468C41.4587 17.3201 43.4262 18.373 46.8261 19.1856C49.7199 19.8448 50.2083 20.3972 50.2083 21.3845C50.2083 22.4784 49.2207 23.1586 47.6314 23.1586C45.8662 23.1586 44.4264 22.5705 42.8157 21.191C42.7757 21.1569 42.7209 21.1414 42.6703 21.1443C42.617 21.1486 42.5683 21.1728 42.5344 21.2134L40.8788 23.1621C40.8093 23.2429 40.8181 23.3636 40.8984 23.4336C42.7724 25.0881 45.0772 25.962 47.5645 25.962C51.083 25.962 53.3566 24.0608 53.3566 21.118C53.3629 18.6338 51.8591 17.2581 48.176 16.372L48.1697 16.3694ZM61.3169 13.4197C59.7917 13.4197 58.5408 14.0139 57.5093 15.2311V13.8609C57.5093 13.7526 57.4206 13.6647 57.3114 13.6647H54.6036C54.4942 13.6647 54.4057 13.7526 54.4057 13.8609V29.0852C54.4057 29.1935 54.4942 29.2816 54.6036 29.2816H57.3114C57.4206 29.2816 57.5093 29.1935 57.5093 29.0852V24.2796C58.541 25.4248 59.7922 25.9842 61.3169 25.9842C64.1507 25.9842 67.0194 23.8268 67.0194 19.7028C67.0236 15.5777 64.154 13.4196 61.32 13.4196L61.3169 13.4197ZM63.8706 19.7028C63.8706 21.8028 62.5626 23.2682 60.6896 23.2682C58.838 23.2682 57.4413 21.7363 57.4413 19.7028C57.4413 17.6693 58.838 16.1371 60.6896 16.1371C62.5322 16.1369 63.8708 17.6361 63.8708 19.7024L63.8706 19.7028ZM74.372 13.4197C70.7226 13.4197 67.8635 16.1989 67.8635 19.7475C67.8635 23.2576 70.7029 26.0077 74.3273 26.0077C77.9897 26.0077 80.8576 23.2377 80.8576 19.7028C80.8576 16.1799 78.0089 13.4201 74.3718 13.4201L74.372 13.4197ZM74.372 23.2893C72.4309 23.2893 70.9675 21.7467 70.9675 19.7017C70.9675 17.6479 72.3803 16.1575 74.3273 16.1575C76.2809 16.1575 77.7542 17.7 77.7542 19.7466C77.7542 21.8 76.332 23.2893 74.3722 23.2893H74.372ZM88.6507 13.6647H85.6709V10.6516C85.6709 10.5438 85.5827 10.4556 85.4733 10.4556H82.7659C82.6562 10.4556 82.5674 10.5438 82.5674 10.6516V13.6647H81.2654C81.1564 13.6647 81.0682 13.7526 81.0682 13.8609V16.1625C81.0682 16.2704 81.1564 16.3588 81.2654 16.3588H82.5674V22.3142C82.5674 24.7208 83.7786 25.9411 86.1673 25.9411C87.1386 25.9411 87.9444 25.7426 88.7038 25.3168C88.7655 25.2828 88.8038 25.2168 88.8038 25.1469V22.9552C88.8038 22.8877 88.7682 22.8237 88.7097 22.7882C88.6507 22.7516 88.5773 22.7498 88.5168 22.7794C87.9952 23.0389 87.491 23.1587 86.9273 23.1587C86.0585 23.1587 85.6709 22.7686 85.6709 21.8943V16.36H88.6507C88.7601 16.36 88.8481 16.2717 88.8481 16.1636V13.8622C88.8523 13.754 88.7645 13.6658 88.6536 13.6658L88.6507 13.6647ZM99.0329 13.6765V13.3065C99.0329 12.2178 99.455 11.7322 100.402 11.7322C100.966 11.7322 101.42 11.8431 101.927 12.0107C101.99 12.03 102.055 12.0205 102.106 11.9834C102.158 11.9463 102.188 11.887 102.188 11.8241V9.56755C102.188 9.48123 102.132 9.40485 102.048 9.3793C101.511 9.22148 100.825 9.05956 99.7969 9.05956C97.2959 9.05956 95.9739 10.4526 95.9739 13.0863V13.6531H94.673C94.5638 13.6531 94.4743 13.7411 94.4743 13.8491V16.1625C94.4743 16.2704 94.5638 16.3588 94.673 16.3588H95.9739V25.5448C95.9739 25.6529 96.0621 25.741 96.1713 25.741H98.8792C98.9886 25.741 99.0777 25.6529 99.0777 25.5448V16.3594H101.606L105.479 25.543C105.039 26.508 104.607 26.6999 104.017 26.6999C103.539 26.6999 103.037 26.5591 102.523 26.2811C102.475 26.2548 102.418 26.2503 102.366 26.2664C102.314 26.2844 102.271 26.3224 102.249 26.3721L101.331 28.3634C101.287 28.4576 101.325 28.5681 101.416 28.6169C102.374 29.13 103.239 29.3489 104.308 29.3489C106.308 29.3489 107.413 28.428 108.387 25.95L113.085 13.9445C113.108 13.884 113.101 13.8158 113.064 13.7622C113.027 13.7091 112.967 13.677 112.901 13.677H110.082C109.997 13.677 109.922 13.7301 109.894 13.8086L107.007 21.9663L103.844 13.8033C103.815 13.7273 103.741 13.677 103.659 13.677H99.0323L99.0329 13.6765ZM93.0136 13.6647H90.3057C90.1963 13.6647 90.1072 13.7526 90.1072 13.8609V25.5448C90.1072 25.6529 90.1963 25.741 90.3057 25.741H93.0136C93.1227 25.741 93.212 25.6529 93.212 25.5448V13.8619C93.2122 13.8097 93.1913 13.7596 93.154 13.7226C93.1167 13.6859 93.066 13.6653 93.0133 13.6654L93.0136 13.6647ZM91.675 8.34475C90.6023 8.34475 89.7318 9.20352 89.7318 10.2646C89.7318 11.3261 90.6025 12.1859 91.675 12.1859C92.7474 12.1859 93.617 11.3261 93.617 10.2646C93.617 9.20369 92.7469 8.34475 91.6761 8.34475H91.675ZM115.397 17.4211C114.325 17.4211 113.491 16.57 113.491 15.5364C113.491 14.5028 114.336 13.6419 115.407 13.6419C116.479 13.6419 117.312 14.4928 117.312 15.5256C117.312 16.5593 116.467 17.4211 115.397 17.4211H115.397ZM115.407 13.8294C114.431 13.8294 113.693 14.5967 113.693 15.5364C113.693 16.4757 114.426 17.2328 115.397 17.2328C116.373 17.2328 117.113 16.4659 117.113 15.5256C117.113 14.5864 116.379 13.8294 115.408 13.8294H115.407H115.407ZM115.83 15.7194L116.369 16.4657H115.914L115.429 15.7811H115.012V16.4657H114.631V14.4875H115.523C115.988 14.4875 116.294 14.7227 116.294 15.1185C116.296 15.4429 116.105 15.6411 115.831 15.7195H115.83V15.7194ZM115.508 14.827H115.012V15.4526H115.508C115.755 15.4526 115.903 15.3328 115.903 15.1394C115.903 14.936 115.755 14.827 115.508 14.827H115.508Z" fill="#826CA5"/>
</svg>
