<svg width="81" height="34" viewBox="0 0 81 34" fill="none" xmlns="http://www.w3.org/2000/svg">
<path d="M6.17404 12.8499C6.17404 12.0002 6.8875 11.6733 8.06918 11.6733C9.76366 11.6733 11.9041 12.1745 13.5985 13.0678V7.9475C11.748 7.22848 9.91973 6.94523 8.06918 6.94523C3.54314 6.94523 0.533203 9.25481 0.533203 13.1114C0.533203 19.125 9.0056 18.1663 9.0056 20.7591C9.0056 21.7614 8.11377 22.0882 6.86521 22.0882C5.01466 22.0882 2.6513 21.3474 0.778457 20.3452V25.5308C2.85197 26.4024 4.94777 26.7728 6.86521 26.7728C11.5027 26.7728 14.691 24.5286 14.691 20.6284C14.6687 14.1354 6.17404 15.2902 6.17404 12.8499ZM21.246 2.58753L15.8058 3.72053L15.7835 21.1731C15.7835 24.3978 18.2584 26.7728 21.5581 26.7728C23.3864 26.7728 24.7241 26.446 25.4599 26.0538V21.6307C24.7464 21.9139 21.2237 22.9162 21.2237 19.6915V11.9566H25.4599V7.31564H21.2237L21.246 2.58753ZM32.3939 8.92798L32.0372 7.31564H27.2213V26.3806H32.7952V13.46C34.1107 11.7823 36.3402 12.0873 37.0314 12.327V7.31564C36.3179 7.05417 33.7093 6.57483 32.3939 8.92798ZM38.3915 7.31564H43.9877V26.3806H38.3915V7.31564ZM38.3915 5.65971L43.9877 4.48313V0.0600586L38.3915 1.21485V5.65971ZM55.6261 6.94523C53.4411 6.94523 52.0365 7.9475 51.2561 8.64473L50.9663 7.29385H46.0612V32.6993L51.6352 31.5445L51.6575 25.3783C52.4601 25.9448 53.6418 26.751 55.6038 26.751C59.5948 26.751 63.229 23.6134 63.229 16.7065C63.2067 10.3878 59.5279 6.94523 55.6261 6.94523ZM54.2884 21.9575C52.9729 21.9575 52.1926 21.5 51.6575 20.9335L51.6352 12.8499C52.2149 12.2181 53.0175 11.7823 54.2884 11.7823C56.3173 11.7823 57.7219 14.0047 57.7219 16.859C57.7219 19.7787 56.3396 21.9575 54.2884 21.9575ZM80.7981 16.9244C80.7981 11.3465 78.0334 6.94523 72.7493 6.94523C67.4429 6.94523 64.2323 11.3465 64.2323 16.8808C64.2323 23.4391 68.0226 26.751 73.4627 26.751C76.1159 26.751 78.1226 26.1627 79.6387 25.3347V20.977C78.1226 21.7178 76.3835 22.1754 74.1762 22.1754C72.0135 22.1754 70.0961 21.4346 69.8508 18.8635H80.7535C80.7535 18.5803 80.7981 17.4473 80.7981 16.9244ZM69.7839 14.8545C69.7839 12.3924 71.3223 11.3683 72.727 11.3683C74.087 11.3683 75.5362 12.3924 75.5362 14.8545H69.7839V14.8545Z" fill="#826CA5"/>
</svg>
