<svg width="73" height="25" viewBox="0 0 73 25" fill="none" xmlns="http://www.w3.org/2000/svg">
<path d="M31.4669 24.3861H26.0139L29.4222 1.35187H34.8757L31.4669 24.3861Z" fill="#826CA5"/>
<path d="M20.465 1.35211L14.9826 17.1943L14.3345 13.7827L14.3351 13.784L12.3997 3.42666C12.3997 3.42666 12.1663 1.35211 9.67209 1.35211H0.610142L0.504395 1.74152C0.504395 1.74152 3.27633 2.34287 6.51851 4.37552L11.5141 24.3859H17.5052L26.6534 1.35211H20.465Z" fill="#826CA5"/>
<path d="M67.0061 24.3859H72.2437L67.6771 1.35211H63.0912C60.9732 1.35211 60.4575 3.06868 60.4575 3.06868L51.9514 24.3859H57.8964L59.0861 20.9651H66.3374L67.0061 24.3859ZM60.7294 16.2381L63.7271 7.61826L65.4132 16.2381H60.7294Z" fill="#826CA5"/>
<path d="M51.6991 6.89407L52.5068 1.94937C52.5068 1.94937 50.0126 0.945526 47.4125 0.945526C44.6017 0.945526 37.9274 2.24621 37.9274 8.56736C37.9274 14.5159 45.761 14.5898 45.761 17.7128C45.761 20.8358 38.7346 20.2779 36.4161 18.3077L35.5735 23.4766C35.5735 23.4766 38.102 24.7773 41.9673 24.7773C45.832 24.7773 51.6636 22.6581 51.6636 16.895C51.6636 10.9088 43.7591 10.3515 43.7591 7.7495C43.7591 5.14627 49.2753 5.48068 51.6991 6.89407Z" fill="#826CA5"/>
<path d="M13.9816 13.9279L12.0957 3.45021C12.0957 3.45021 11.8683 1.35156 9.43776 1.35156H0.607439L0.504395 1.74549C0.504395 1.74549 4.74887 2.69851 8.82063 6.26627C12.7122 9.67697 13.9816 13.9279 13.9816 13.9279Z" fill="#826CA5"/>
</svg>
